<svg version="1.1" id="Layer_1" xmlns="http://www.w3.org/2000/svg" xmlns:xlink="http://www.w3.org/1999/xlink" viewBox="0 0 32 32" xml:space="preserve">
    <style type="text/css">
        .st0{fill:#800080;}
    </style>
    <g id="SVGRepo_bgCarrier" stroke-width="0"></g>
    <g id="SVGRepo_tracerCarrier" stroke-linecap="round" stroke-linejoin="round"></g>
    <g id="SVGRepo_iconCarrier">
        <g>
            <path class="st0" d="M11.3,3.2c0-1.8,1.4-3.2,3.2-3.2s3.2,1.4,3.2,3.2s-1.4,3.2-3.2,3.2S11.3,5,11.3,3.2z M31.5,19.5h-3.5l1.6-6.2 c0.6-2.4-0.8-4.9-3.1-5.5c-0.2,0-0.4-0.1-0.6-0.1h-0.5c-1.6,0-3,0.9-3.6,2.4l-1.4,3.4c-0.4,1-0.9,2-1.5,2.8l-2.8-1.3l0.6-4.5 C18.9,9.1,18.8,8,18.4,7C18,6.1,17.4,5.3,16.6,4.7c-2.5-1.8-6-1.3-7.8,1.2L6.2,8.5c-1.8,2.5-1.3,6,1.2,7.8c0.7,0.5,1.4,0.8,2.2,1 l0.6,0.1l1.1,3.6l-2.9,5.7c-1,2-0.2,4.4,1.8,5.4c0.6,0.3,1.3,0.4,2,0.4c1.5,0,2.9-0.9,3.6-2.2l3.8-7.6c0.4-0.8,0.5-1.7,0.3-2.6 l-0.7-2.3c1,0.3,2.1,0.7,3.1,0.8c1.3,0.2,2.7,0.2,4,0.1h0.4l-0.7,2.7h-3.5c-1,0-1.8,0.8-1.8,1.8s0.8,1.8,1.8,1.8h3.6h6.3 c1,0,1.8-0.8,1.8-1.8S32.5,19.5,31.5,19.5z M8.4,11.5c-0.3-0.2-0.5-0.5-0.6-0.8c-0.5-1.2-0.1-2.6,0.9-3.3l1.1-1.6L10.9,8 c0.6,0.9,0.4,2.2-0.5,2.8C9.6,11.3,8.9,11.5,8.4,11.5z M15.6,24.2l-3.8,7.6c-0.4,0.7-1.4,1.1-2.2,0.6c-0.7-0.4-1-1.4-0.6-2.2 l2.9-5.7c0.4-0.8,0.5-1.7,0.3-2.6L9.6,18c-0.1-0.3-0.2-0.6-0.2-0.9c0,0,0.1-0.1,0.1-0.1l3.2,1.5c0.6,0.3,1.3,0.3,1.9,0 c0.7-0.3,1.2-0.9,1.3-1.6l2.3,1L15.6,24.2z"></path>
        </g>
        <path class="st0" d="M6.2,10.9L0,10.6c0,0,3.7-4.1,5.1-7.4L8,2.8C7.9,2.8,7.8,2.9,7.7,3C6.5,4.2,6.2,5.9,6.7,7.4 C7.1,8.8,6.8,9.9,6.2,10.9z"></path>
        <path class="st0" d="M8.2,19.7L2.6,16c0,0,3.5,0.8,5.3-1.2c0.1-0.1,0.3-0.3,0.4-0.4c0.1,0.2,0.1,0.5,0.2,0.7L9.9,17 C9.7,17.8,9.1,18.7,8.2,19.7z"></path>
        <path class="st0" d="M6.5,24.2l-2.8,2.7c0,0,1.1-4.3-0.1-7.4l2.1,1.5C6.1,22,6.4,23.1,6.5,24.2z"></path>
    </g>
</svg>
