<svg viewBox="0 0 1024 1024" class="icon" version="1.1" xmlns="http://www.w3.org/2000/svg" fill="#000000">
    <g id="SVGRepo_bgCarrier" stroke-width="0"></g>
    <g id="SVGRepo_tracerCarrier" stroke-linecap="round" stroke-linejoin="round"></g>
    <g id="SVGRepo_iconCarrier">
        <path d="M485.973333 219.306667a91.306667 91.306667 0 1 1 182.613334 0 91.306667 91.306667 0 1 1-182.613334 0zM603.306667 674.986667l77.994666-137.984a42.666667 42.666667 0 0 0 5.717334-24.192l-12.586667-129.28a42.666667 42.666667 0 0 0-17.749333-30.677334l-128.938667-91.370666a42.666667 42.666667 0 0 0-56.021333 6.144l-78.933333 90.666666a42.666667 42.666667 0 0 0 4.309333 61.226667L461.653333 460.373333l-61.269333 151.274667a42.666667 42.666667 0 0 0 6.058667 44.245333l131.072 148.224c16.597333 18.837333 46.506667 18.474667 62.869333-0.725333l122.538667-139.669333a42.666667 42.666667 0 0 0 4.384-51.648l-20.330667-31.84a42.666667 42.666667 0 0 0-70.730666 3.712L603.306667 674.986667zM340.693333 530.346667H170.666667a42.666667 42.666667 0 0 0 0 85.333333h159.018666l55.936 183.893333a42.666667 42.666667 0 0 0 39.253334 30.485334c10.026666 0.725333 19.861333-2.688 27.733333-9.813334l98.602667-89.450666a42.666667 42.666667 0 0 0-56.234667-64.448l-51.264 46.489333-63.701333-209.365333a42.666667 42.666667 0 0 0-40.128-30.453333z" fill="#333333"></path>
    </g>
</svg>
